<svg width="743" height="135" viewBox="0 0 743 135" fill="none" xmlns="http://www.w3.org/2000/svg">
<path d="M49.2431 0L49.2613 49.367L74.8108 0H125L124.017 23.5811L88.8759 58.0251L124.867 88.8137L125 113H74.8108L50.0255 67.106C50.0255 67.106 49.519 107.134 49.2431 113H0V66.6194C0 65.8409 36.8186 56.4985 36.8186 56.4985C36.8186 56.4985 0 47.1561 0 46.3775V0H49.2431Z" fill="url(#paint0_linear_1071_71)"/>
<path d="M185.055 60.5823H171.632V106.755H159V5.96094H171.632V48.7365H184.988L217.276 5.96094H233.377L196.51 54.4402L236.741 106.755H220.512L185.06 60.5823H185.055Z" fill="url(#paint1_linear_1071_71)"/>
<path d="M228.459 67.8727C228.459 44.5813 245.713 27.2891 268.7 27.2891C281.417 27.2891 292.201 32.4448 299.367 40.9075L300.892 28.9902H310.636V106.746H300.501L299.21 94.9666C292.039 103.339 281.327 108.452 268.7 108.452C245.713 108.452 228.459 91.0307 228.459 67.8727ZM298.138 67.8727C298.138 51.3333 286.111 39.1397 269.624 39.1397C253.137 39.1397 240.962 51.5049 240.962 67.8727C240.962 84.2405 253.161 96.6057 269.624 96.6057C286.087 96.6057 298.138 84.4073 298.138 67.8727Z" fill="url(#paint2_linear_1071_71)"/>
<path d="M326.581 28.9949H335.406L337.412 39.659C343.359 31.9397 352.493 27.2891 362.328 27.2891C373.359 27.2891 381.865 32.9642 386.167 42.032C391.933 32.8975 401.801 27.2891 412.513 27.2891C428.972 27.2891 439.85 39.6495 439.85 57.0132V106.746H427.623V60.8205C427.623 46.8399 421.128 38.4725 410.026 38.4725C398.923 38.4725 389.293 49.413 389.293 63.6604V106.741H377.314V60.8157C377.314 46.8113 370.834 38.4678 359.588 38.4678C348.343 38.4678 338.856 49.4083 338.856 63.6557V106.736H326.614L326.576 28.9806L326.581 28.9949Z" fill="url(#paint3_linear_1071_71)"/>
<path d="M467.011 96.3419V134.51H454.77V28.998H463.199L465.639 40.8867C472.843 32.4383 483.603 27.2969 496.063 27.2969C519.231 27.2969 536.027 44.5891 536.027 67.8805C536.027 91.1719 519.231 108.459 496.063 108.459C484.37 108.459 474.177 103.899 467.011 96.3419ZM523.662 67.8757C523.662 51.3364 511.63 39.1427 495.148 39.1427C478.666 39.1427 466.487 51.4984 466.487 67.8757C466.487 84.2531 478.685 96.6088 495.148 96.6088C511.611 96.6088 523.662 84.4103 523.662 67.8757Z" fill="url(#paint4_linear_1071_71)"/>
<path d="M539.768 67.8727C539.768 44.5813 557.022 27.2891 580.013 27.2891C592.731 27.2891 603.514 32.4448 610.68 40.9075L612.205 28.9902H621.95V106.746H611.815L610.523 94.9666C603.352 103.339 592.64 108.452 580.013 108.452C557.026 108.452 539.768 91.0307 539.768 67.8727ZM609.446 67.8727C609.446 51.3333 597.419 39.1397 580.933 39.1397C564.446 39.1397 552.271 51.5049 552.271 67.8727C552.271 84.2405 564.469 96.6057 580.933 96.6057C597.396 96.6057 609.446 84.4073 609.446 67.8727Z" fill="url(#paint5_linear_1071_71)"/>
<path d="M637.926 1.25H650.167V106.757H637.926V1.25Z" fill="url(#paint6_linear_1071_71)"/>
<path d="M660.004 67.8727C660.004 44.4241 677.677 27.2891 701.231 27.2891C724.784 27.2891 742.458 44.567 742.458 67.8727C742.458 91.1784 724.799 108.452 701.231 108.452C677.663 108.452 660.004 91.1736 660.004 67.8727ZM729.95 67.8727C729.95 51.2285 717.87 39.1397 701.226 39.1397C684.582 39.1397 672.503 51.219 672.503 67.8727C672.503 84.5264 684.591 96.6057 701.226 96.6057C717.861 96.6057 729.95 84.5169 729.95 67.8727Z" fill="url(#paint7_linear_1071_71)"/>
<defs>
<linearGradient id="paint0_linear_1071_71" x1="-41.5993" y1="2.8007" x2="156.131" y2="116.571" gradientUnits="userSpaceOnUse">
<stop stop-color="#215F8C"/>
<stop offset="0.656942" stop-color="#0B3049"/>
</linearGradient>
<linearGradient id="paint1_linear_1071_71" x1="159" y1="56.3581" x2="236.741" y2="56.3581" gradientUnits="userSpaceOnUse">
<stop stop-color="#1C537B"/>
<stop offset="1" stop-color="#0C304A"/>
</linearGradient>
<linearGradient id="paint2_linear_1071_71" x1="228.459" y1="67.8703" x2="310.636" y2="67.8703" gradientUnits="userSpaceOnUse">
<stop stop-color="#1C537B"/>
<stop offset="1" stop-color="#0C304A"/>
</linearGradient>
<linearGradient id="paint3_linear_1071_71" x1="326.576" y1="67.0174" x2="439.85" y2="67.0174" gradientUnits="userSpaceOnUse">
<stop stop-color="#1C537B"/>
<stop offset="1" stop-color="#0C304A"/>
</linearGradient>
<linearGradient id="paint4_linear_1071_71" x1="454.77" y1="80.9033" x2="536.027" y2="80.9033" gradientUnits="userSpaceOnUse">
<stop stop-color="#1C537B"/>
<stop offset="1" stop-color="#0C304A"/>
</linearGradient>
<linearGradient id="paint5_linear_1071_71" x1="539.768" y1="67.8703" x2="621.95" y2="67.8703" gradientUnits="userSpaceOnUse">
<stop stop-color="#1C537B"/>
<stop offset="1" stop-color="#0C304A"/>
</linearGradient>
<linearGradient id="paint6_linear_1071_71" x1="637.926" y1="54.0035" x2="650.167" y2="54.0035" gradientUnits="userSpaceOnUse">
<stop stop-color="#1C537B"/>
<stop offset="1" stop-color="#0C304A"/>
</linearGradient>
<linearGradient id="paint7_linear_1071_71" x1="660.004" y1="67.8703" x2="742.458" y2="67.8703" gradientUnits="userSpaceOnUse">
<stop stop-color="#1C537B"/>
<stop offset="1" stop-color="#0C304A"/>
</linearGradient>
</defs>
</svg>
